<svg xmlns="http://www.w3.org/2000/svg" viewBox="0 0 1059 582"><defs><style>.cls-1{fill:#f69e67;}.cls-2,.cls-9{fill:#fff;}.cls-2{opacity:0.2;}.cls-10,.cls-3{opacity:0.5;}.cls-10,.cls-4{fill:#c6805e;}.cls-5{fill:#294d62;}.cls-14,.cls-6{opacity:0.4;}.cls-7{fill:#a44c3e;}.cls-8{fill:#d2eaee;}.cls-11{fill:#718596;}.cls-12{fill:#dedede;}.cls-13{fill:#d0d0d0;}.cls-14{fill:#f6fafa;}.cls-15{fill:#6b7e8d;}.cls-16{fill:#7f91a0;}.cls-17{opacity:0.35;}.cls-18{fill:#ed7858;}.cls-19{fill:#d36248;}.cls-20{fill:#56d6c2;}.cls-21{fill:#7aedd7;}.cls-22{fill:#51cab7;}.cls-23{fill:#ba503e;}.cls-24{fill:#e2e2e2;}.cls-25{fill:#c8ac9f;}.cls-26{fill:#8f6f62;}.cls-27{fill:#e3d6d0;}.cls-28{fill:#b7b7b7;}.cls-29{fill:#9e9e9e;}.cls-30{fill:#eae6e5;}.cls-31{fill:#ffad75;}.cls-32{fill:#c5875b;}.cls-33{fill:#d8edf0;}.cls-34{fill:#ccdfe2;}.cls-35{fill:#e2f2ff;}.cls-36{fill:#686f8e;}.cls-37{fill:#5d6582;}</style></defs><title>Asset 20</title><g id="Layer_2" data-name="Layer 2"><g id="Layer_1-2" data-name="Layer 1"><rect class="cls-1" x="3" y="3" width="1053" height="576" rx="13.62" ry="13.62"/><path class="cls-2" d="M20,31.62A13.62,13.62,0,0,1,33.62,18H1056V16.62A13.62,13.62,0,0,0,1042.38,3H16.62A13.62,13.62,0,0,0,3,16.62V565.38A13.62,13.62,0,0,0,16.62,579H20Z"/><g class="cls-3"><path class="cls-4" d="M1053,77.34v486A13.62,13.62,0,0,1,1039.38,577H233c110.12-9.08,222.1-35.17,325.93-68.48,113.22-36.32,222.25-90,311.47-168.59A673.35,673.35,0,0,0,1053,77.34Z"/></g><path class="cls-5" d="M1042.38,582H16.62A16.64,16.64,0,0,1,0,565.38V16.62A16.64,16.64,0,0,1,16.62,0H1042.38A16.64,16.64,0,0,1,1059,16.62V565.38A16.64,16.64,0,0,1,1042.38,582ZM16.62,6A10.64,10.64,0,0,0,6,16.62V565.38A10.64,10.64,0,0,0,16.62,576H1042.38A10.64,10.64,0,0,0,1053,565.38V16.62A10.64,10.64,0,0,0,1042.38,6Z"/><g class="cls-6"><g class="cls-3"><path class="cls-7" d="M322.13,47.24c35.16-2.58,70.18-9.12,105.52-8.55,36,.57,72.29,8.23,107.88,13.2V46.7c-72.11,11-145.08,16.24-216.19-3.58a2.69,2.69,0,1,0-1.43,5.19h0c72,20.25,146,14.92,219.06,3.58a2.72,2.72,0,0,0,0-5.19C503,41.94,468.57,34.93,434.31,33.5c-37.56-1.57-74.83,5.65-112.17,8.37C318.55,42.12,318.55,47.49,322.13,47.24Z"/><path class="cls-7" d="M514.25,163c35.16-2.58,70.18-9.12,105.52-8.55,36,.57,72.29,8.23,107.88,13.2v-5.15c-72.11,11-145.08,16.24-216.19-3.58A2.69,2.69,0,1,0,510,164.1h0c72,20.25,146,14.92,219.06,3.58a2.72,2.72,0,0,0,0-5.19c-33.95-4.76-68.39-11.77-102.66-13.2-37.56-1.57-74.83,5.65-112.17,8.37-3.58.25-3.58,5.62,0,5.37Z"/><path class="cls-7" d="M822.59,136.7c35.16-2.58,70.18-9.12,105.52-8.55,36,.57,72.29,8.23,107.88,13.2v-5.19c-72.11,11-145.08,16.24-216.19-3.58a2.69,2.69,0,1,0-1.43,5.19c72,20.25,146,14.92,219.06,3.58a2.72,2.72,0,0,0,0-5.19c-33.95-4.76-68.39-11.77-102.66-13.2-37.56-1.57-74.83,5.65-112.17,8.37-3.58.25-3.58,5.62,0,5.37Z"/><path class="cls-7" d="M103.18,136.7c35.16-2.58,70.18-9.12,105.52-8.55,36,.57,72.29,8.23,107.88,13.2v-5.19c-72.11,11-145.08,16.24-216.19-3.58A2.69,2.69,0,1,0,99,137.77h0C171,158,245,152.69,318,141.35a2.72,2.72,0,0,0,0-5.19c-33.95-4.76-68.39-11.77-102.66-13.2-37.56-1.57-74.83,5.65-112.17,8.37C99.61,131.58,99.61,136.95,103.18,136.7Z"/><path class="cls-7" d="M3,23.59A565.52,565.52,0,0,0,176.69,49.89c61.06,0,118.26-13.63,178-24,67.57-11.77,133.28-5.47,198.85,13.52C610,55.75,666.35,68.2,725.19,72.24A748.63,748.63,0,0,0,928,58.79c3.36-.72,1.93-5.87-1.43-5.19C806,78.64,682.37,71.49,564.44,37,506.92,20.23,450,10.25,390,15.55c-61.06,5.51-119.69,24.61-181.18,28a567.74,567.74,0,0,1-204.43-25C1.09,17.41-.34,22.59,3,23.67Z"/><path class="cls-7" d="M228.34,64.91A523.89,523.89,0,0,0,380.9,92.84c56.3,2.07,111.67-7.15,167.73-10.41,113-6.4,220.92,36.77,333.88,33.16a514.48,514.48,0,0,0,171.7-33.84c3.18-1.25,1.79-6.44-1.43-5.19-64.21,25-133.85,35.52-202.67,33.73s-135.5-20-203.57-29.22c-70.72-9.55-138.75,1.4-209.29,5.65a533.94,533.94,0,0,1-207.47-27c-3.26-1.14-4.69,4-1.43,5.19Z"/><path class="cls-7" d="M7.64,72.24a333.2,333.2,0,0,0,123,28.9c53.19,2.58,104.7-3.36,157.39,8.91,43.75,10.23,85.85,25.36,131,29.44a373.8,373.8,0,0,0,135.68-12.38,2.69,2.69,0,1,0-1.43-5.19,368.72,368.72,0,0,1-134.25,12.16c-46.68-4.29-90.36-20.64-135.93-30.69-43.89-9.66-87.42-7.15-132-7.15-48.33-.18-96.58-8.41-140.68-28.62-3.11-1.43-5.83,3.18-2.72,4.65Z"/><path class="cls-7" d="M13.86,151.72a523.89,523.89,0,0,0,152.56,27.94c56.3,2.07,111.67-7.15,167.73-10.41,113-6.4,220.92,36.77,333.88,33.16a514.48,514.48,0,0,0,171.7-33.84c3.18-1.25,1.79-6.44-1.43-5.19-64.21,25-133.85,35.52-202.67,33.73s-135.5-20-203.57-29.22c-70.72-9.55-138.75,1.4-209.29,5.65a533.94,533.94,0,0,1-207.47-27c-3.26-1.14-4.69,4-1.43,5.19Z"/></g><g class="cls-3"><path class="cls-7" d="M323.13,227.24c35.16-2.58,70.18-9.12,105.52-8.55,36,.57,72.29,8.23,107.88,13.2V226.7c-72.11,11-145.08,16.24-216.19-3.58a2.69,2.69,0,1,0-1.43,5.19h0c72,20.25,146,14.92,219.06,3.58a2.72,2.72,0,0,0,0-5.19c-33.95-4.76-68.39-11.77-102.66-13.2-37.56-1.57-74.83,5.65-112.17,8.37C319.55,222.12,319.55,227.49,323.13,227.24Z"/><path class="cls-7" d="M515.25,343c35.16-2.58,70.18-9.12,105.52-8.55,36,.57,72.29,8.23,107.88,13.2v-5.15c-72.11,11-145.08,16.24-216.19-3.58A2.69,2.69,0,1,0,511,344.1h0c72,20.25,146,14.92,219.06,3.58a2.72,2.72,0,0,0,0-5.19c-33.95-4.76-68.39-11.77-102.66-13.2-37.56-1.57-74.83,5.65-112.17,8.37-3.58.25-3.58,5.62,0,5.37Z"/><path class="cls-7" d="M823.59,316.7c35.16-2.58,70.18-9.12,105.52-8.55,36,.57,72.29,8.23,107.88,13.2v-5.19c-72.11,11-145.08,16.24-216.19-3.58a2.69,2.69,0,1,0-1.43,5.19c72,20.25,146,14.92,219.06,3.58a2.72,2.72,0,0,0,0-5.19c-33.95-4.76-68.39-11.77-102.66-13.2-37.56-1.57-74.83,5.65-112.17,8.37-3.58.25-3.58,5.62,0,5.37Z"/><path class="cls-7" d="M104.18,316.7c35.16-2.58,70.18-9.12,105.52-8.55,36,.57,72.29,8.23,107.88,13.2v-5.19c-72.11,11-145.08,16.24-216.19-3.58a2.69,2.69,0,1,0-1.43,5.19h0C172,338,246,332.69,319,321.35a2.72,2.72,0,0,0,0-5.19c-33.95-4.76-68.39-11.77-102.66-13.2-37.56-1.57-74.83,5.65-112.17,8.37C100.61,311.58,100.61,316.95,104.18,316.7Z"/><path class="cls-7" d="M4,203.59a565.52,565.52,0,0,0,173.66,26.29c61.06,0,118.26-13.63,178-24,67.57-11.77,133.28-5.47,198.85,13.52,56.55,16.38,112.85,28.83,171.7,32.87A748.63,748.63,0,0,0,929,238.79c3.36-.72,1.93-5.87-1.43-5.19C807,258.64,683.37,251.49,565.44,217,507.92,200.23,451,190.25,391,195.55c-61.06,5.51-119.69,24.61-181.18,28a567.74,567.74,0,0,1-204.43-25C2.09,197.41.66,202.59,4,203.67Z"/><path class="cls-7" d="M229.34,244.91A523.89,523.89,0,0,0,381.9,272.84c56.3,2.07,111.67-7.15,167.73-10.41,113-6.4,220.92,36.77,333.88,33.16a514.48,514.48,0,0,0,171.7-33.84c3.18-1.25,1.79-6.44-1.43-5.19-64.21,25-133.85,35.52-202.67,33.73s-135.5-20-203.57-29.22c-70.72-9.55-138.75,1.4-209.29,5.65a533.94,533.94,0,0,1-207.47-27c-3.26-1.14-4.69,4-1.43,5.19Z"/><path class="cls-7" d="M8.64,252.24a333.2,333.2,0,0,0,123,28.9c53.19,2.58,104.7-3.36,157.39,8.91,43.75,10.23,85.85,25.36,131,29.44a373.8,373.8,0,0,0,135.68-12.38,2.69,2.69,0,1,0-1.43-5.19,368.72,368.72,0,0,1-134.25,12.16c-46.68-4.29-90.36-20.64-135.93-30.69-43.89-9.66-87.42-7.15-132-7.15-48.33-.18-96.58-8.41-140.68-28.62-3.11-1.43-5.83,3.18-2.72,4.65Z"/><path class="cls-7" d="M14.86,331.72a523.89,523.89,0,0,0,152.56,27.94c56.3,2.07,111.67-7.15,167.73-10.41,113-6.4,220.92,36.77,333.88,33.16a514.48,514.48,0,0,0,171.7-33.84c3.18-1.25,1.79-6.44-1.43-5.19-64.21,25-133.85,35.52-202.67,33.73s-135.5-20-203.57-29.22c-70.72-9.55-138.75,1.4-209.29,5.65a533.94,533.94,0,0,1-207.47-27c-3.26-1.14-4.69,4-1.43,5.19Z"/></g><g class="cls-3"><path class="cls-7" d="M323.13,416.24c35.16-2.58,70.18-9.12,105.52-8.55,36,.57,72.29,8.23,107.88,13.2V415.7c-72.11,11-145.08,16.24-216.19-3.58a2.69,2.69,0,1,0-1.43,5.19h0c72,20.25,146,14.92,219.06,3.58a2.72,2.72,0,0,0,0-5.19c-33.95-4.76-68.39-11.77-102.66-13.2-37.56-1.57-74.83,5.65-112.17,8.37C319.55,411.12,319.55,416.49,323.13,416.24Z"/><path class="cls-7" d="M515.25,532c35.16-2.58,70.18-9.12,105.52-8.55,36,.57,72.29,8.23,107.88,13.2v-5.15c-72.11,11-145.08,16.24-216.19-3.58A2.69,2.69,0,1,0,511,533.1h0c72,20.25,146,14.92,219.06,3.58a2.72,2.72,0,0,0,0-5.19c-33.95-4.76-68.39-11.77-102.66-13.2-37.56-1.57-74.83,5.65-112.17,8.37-3.58.25-3.58,5.62,0,5.37Z"/><path class="cls-7" d="M823.59,505.7c35.16-2.58,70.18-9.12,105.52-8.55,36,.57,72.29,8.23,107.88,13.2v-5.19c-72.11,11-145.08,16.24-216.19-3.58a2.69,2.69,0,1,0-1.43,5.19c72,20.25,146,14.92,219.06,3.58a2.72,2.72,0,0,0,0-5.19c-33.95-4.76-68.39-11.77-102.66-13.2-37.56-1.57-74.83,5.65-112.17,8.37-3.58.25-3.58,5.62,0,5.37Z"/><path class="cls-7" d="M104.18,505.7c35.16-2.58,70.18-9.12,105.52-8.55,36,.57,72.29,8.23,107.88,13.2v-5.19c-72.11,11-145.08,16.24-216.19-3.58a2.69,2.69,0,1,0-1.43,5.19h0C172,527,246,521.69,319,510.35a2.72,2.72,0,0,0,0-5.19c-33.95-4.76-68.39-11.77-102.66-13.2-37.56-1.57-74.83,5.65-112.17,8.37C100.61,500.58,100.61,505.95,104.18,505.7Z"/><path class="cls-7" d="M4,392.59a565.52,565.52,0,0,0,173.66,26.29c61.06,0,118.26-13.63,178-24,67.57-11.77,133.28-5.47,198.85,13.52,56.55,16.38,112.85,28.83,171.7,32.87A748.63,748.63,0,0,0,929,427.79c3.36-.72,1.93-5.87-1.43-5.19C807,447.64,683.37,440.49,565.44,406,507.92,389.23,451,379.25,391,384.55c-61.06,5.51-119.69,24.61-181.18,28a567.74,567.74,0,0,1-204.43-25C2.09,386.41.66,391.59,4,392.67Z"/><path class="cls-7" d="M229.34,433.91A523.89,523.89,0,0,0,381.9,461.84c56.3,2.07,111.67-7.15,167.73-10.41,113-6.4,220.92,36.77,333.88,33.16a514.48,514.48,0,0,0,171.7-33.84c3.18-1.25,1.79-6.44-1.43-5.19-64.21,25-133.85,35.52-202.67,33.73s-135.5-20-203.57-29.22c-70.72-9.55-138.75,1.4-209.29,5.65a533.94,533.94,0,0,1-207.47-27c-3.26-1.14-4.69,4-1.43,5.19Z"/><path class="cls-7" d="M8.64,441.24a333.2,333.2,0,0,0,123,28.9c53.19,2.58,104.7-3.36,157.39,8.91,43.75,10.23,85.85,25.36,131,29.44a373.8,373.8,0,0,0,135.68-12.38,2.69,2.69,0,1,0-1.43-5.19,368.72,368.72,0,0,1-134.25,12.16c-46.68-4.29-90.36-20.64-135.93-30.69-43.89-9.66-87.42-7.15-132-7.15-48.33-.18-96.58-8.41-140.68-28.62-3.11-1.43-5.83,3.18-2.72,4.65Z"/><path class="cls-7" d="M14.86,520.72a523.89,523.89,0,0,0,152.56,27.94c56.3,2.07,111.67-7.15,167.73-10.41,113-6.4,220.92,36.77,333.88,33.16a514.48,514.48,0,0,0,171.7-33.84c3.18-1.25,1.79-6.44-1.43-5.19-64.21,25-133.85,35.52-202.67,33.73s-135.5-20-203.57-29.22c-70.72-9.55-138.75,1.4-209.29,5.65a533.94,533.94,0,0,1-207.47-27c-3.26-1.14-4.69,4-1.43,5.19Z"/></g></g><path class="cls-8" d="M933,399h45.19a9,9,0,0,1,9,9v0a9,9,0,0,1-9,9H933a0,0,0,0,1,0,0V399a0,0,0,0,1,0,0Z" transform="translate(52.92 922.97) rotate(-52.61)"/><path class="cls-9" d="M966.94,394.11a9,9,0,0,1,13.94-.44,9,9,0,0,0-15.94-3.56L937.49,426l3.19,2.44Z"/><rect class="cls-10" x="279" y="110" width="429" height="274" rx="30.98" ry="30.98"/><rect class="cls-10" x="135" y="331" width="92" height="179" rx="17.2" ry="17.2"/><rect class="cls-10" x="768" y="203" width="145" height="190" rx="30.98" ry="30.98"/><rect class="cls-11" x="761" y="212.13" width="51" height="130" rx="12" ry="12"/><path class="cls-5" d="M799.5,344.13h-27a14.52,14.52,0,0,1-14.5-14.5v-106a14.52,14.52,0,0,1,14.5-14.5h27a14.52,14.52,0,0,1,14.5,14.5v106A14.52,14.52,0,0,1,799.5,344.13Zm-27-130a9.51,9.51,0,0,0-9.5,9.5v106a9.51,9.51,0,0,0,9.5,9.5h27a9.51,9.51,0,0,0,9.5-9.5v-106a9.51,9.51,0,0,0-9.5-9.5Z"/><rect class="cls-12" x="280" y="97" width="429" height="274" rx="30.98" ry="30.98"/><path class="cls-13" d="M708,158.39V339a31,31,0,0,1-31,31H310a30.57,30.57,0,0,1-5.61-.51C374.44,366.15,662.17,341.33,708,158.39Z"/><path class="cls-14" d="M292,353V141a31,31,0,0,1,31-31H690a30.88,30.88,0,0,1,11.71,2.3A30.93,30.93,0,0,0,677,100H310a31,31,0,0,0-31,31V343a31,31,0,0,0,19.27,28.68A30.84,30.84,0,0,1,292,353Z"/><line class="cls-9" x1="281" y1="156.25" x2="301.3" y2="156.25"/><path class="cls-5" d="M281,158.5h20.3c2.9,0,2.9-4.5,0-4.5H281c-2.9,0-2.9,4.5,0,4.5Z"/><line class="cls-9" x1="308.3" y1="156.25" x2="316" y2="156.25"/><path class="cls-5" d="M308.3,158.5H316c2.9,0,2.9-4.5,0-4.5h-7.7c-2.9,0-2.9,4.5,0,4.5Z"/><line class="cls-9" x1="281" y1="166" x2="339" y2="166"/><path class="cls-5" d="M281,168.25h58c2.9,0,2.9-4.5,0-4.5H281c-2.9,0-2.9,4.5,0,4.5Z"/><line class="cls-9" x1="680" y1="325.5" x2="709" y2="325.5"/><path class="cls-5" d="M680,327.75h29c2.9,0,2.9-4.5,0-4.5H680c-2.9,0-2.9,4.5,0,4.5Z"/><path class="cls-5" d="M677.52,373.5h-367a34,34,0,0,1-34-34v-212a34,34,0,0,1,34-34h367a34,34,0,0,1,34,34v212A34,34,0,0,1,677.52,373.5Zm-367-274a28,28,0,0,0-28,28v212a28,28,0,0,0,28,28h367a28,28,0,0,0,28-28v-212a28,28,0,0,0-28-28Z"/><rect class="cls-11" x="771" y="173.88" width="142" height="206" rx="16.8" ry="16.8"/><path class="cls-15" d="M912,190.67v172.4a16.8,16.8,0,0,1-16.8,16.8H839.1c17.19-19.63,28.45-44.66,38.13-69.23,17.06-43.27,31.33-90.59,23.54-135.82A16.79,16.79,0,0,1,912,190.67Z"/><path class="cls-16" d="M781,372.07V199.68a16.8,16.8,0,0,1,16.8-16.8H906.2a16.73,16.73,0,0,1,5.92,1.09,16.79,16.79,0,0,0-14.92-9.09H788.8a16.8,16.8,0,0,0-16.8,16.8V364.07a16.79,16.79,0,0,0,10.88,15.71A16.71,16.71,0,0,1,781,372.07Z"/><path class="cls-5" d="M896.2,382.88H787.8a19.83,19.83,0,0,1-19.8-19.8V190.68a19.83,19.83,0,0,1,19.8-19.8H896.2a19.83,19.83,0,0,1,19.8,19.8V363.07A19.83,19.83,0,0,1,896.2,382.88Zm-108.39-206a13.82,13.82,0,0,0-13.8,13.8V363.07a13.82,13.82,0,0,0,13.8,13.8H896.2a13.82,13.82,0,0,0,13.8-13.8V190.68a13.82,13.82,0,0,0-13.8-13.8Z"/><rect class="cls-5" x="813.5" y="174.54" width="3" height="204.24"/><rect class="cls-5" x="866.5" y="174.54" width="3" height="204.24"/><g class="cls-17"><rect class="cls-5" x="816.5" y="174.54" width="3" height="204.24"/><rect class="cls-5" x="869.5" y="174.54" width="3" height="204.24"/></g><rect class="cls-18" x="93.64" y="247" width="7.89" height="15"/><rect class="cls-19" x="93.64" y="250" width="7.89" height="5"/><path class="cls-5" d="M102.53,263H92.64V246h9.89Zm-7.89-2h5.89V248H94.64Z"/><rect class="cls-20" x="82.08" y="65" width="122.92" height="182" rx="9.11" ry="9.11"/><path class="cls-21" d="M88.27,244.89V81.11A9.35,9.35,0,0,1,97.79,72H197.91a9.8,9.8,0,0,1,3.09.51A9.44,9.44,0,0,0,191.64,65H91.52A9.35,9.35,0,0,0,82,74.11V237.89a9.18,9.18,0,0,0,6.43,8.6A8.66,8.66,0,0,1,88.27,244.89Z"/><path class="cls-22" d="M203.92,104.23V237.89c0,5-4.42,9.11-9.82,9.11H111.46a108.48,108.48,0,0,0,34.33-23.89c14.37-14.66,24.74-32.32,33.61-50.35C190.18,150.85,199,127.83,203.92,104.23Z"/><path class="cls-5" d="M194.81,250H90.11A12.12,12.12,0,0,1,78,237.89V74.11A12.12,12.12,0,0,1,90.11,62h104.7a12.12,12.12,0,0,1,12.11,12.11V237.89A12.12,12.12,0,0,1,194.81,250ZM90.11,68A6.12,6.12,0,0,0,84,74.11V237.89A6.12,6.12,0,0,0,90.11,244h104.7a6.12,6.12,0,0,0,6.11-6.11V74.11A6.12,6.12,0,0,0,194.81,68Z"/><rect class="cls-18" x="157.69" y="65" width="14.98" height="181.49"/><path class="cls-5" d="M174.67,248.49h-19V63h19Zm-15-4h11V67h-11Z"/><rect class="cls-23" x="164.67" y="67" width="3" height="177"/><rect class="cls-5" x="161.17" y="65" width="1" height="181.49"/><rect class="cls-5" x="164.17" y="65" width="1" height="181.49"/><rect class="cls-5" x="167.17" y="65" width="1" height="181.49"/><circle class="cls-9" cx="490" cy="234" r="30"/><path class="cls-24" d="M759.5,113.77H766a0,0,0,0,1,0,0v9a0,0,0,0,1,0,0h-6.5a4.5,4.5,0,0,1-4.5-4.5v0A4.5,4.5,0,0,1,759.5,113.77Z"/><path class="cls-9" d="M757,118.27a4.5,4.5,0,0,1,4.5-4.5h-2a4.5,4.5,0,0,0,0,9h2A4.5,4.5,0,0,1,757,118.27Z"/><path class="cls-5" d="M767,124.27h-8a6,6,0,0,1,0-12h8Zm-8-9a3,3,0,0,0,0,6h5v-6Z"/><rect class="cls-25" x="762" y="112.77" width="120" height="11"/><rect class="cls-26" x="762" y="119.77" width="120" height="4"/><rect class="cls-27" x="762" y="112.77" width="120" height="4"/><path class="cls-5" d="M883.5,125.27h-123v-14h123Zm-120-3h117v-8h-117Z"/><path class="cls-25" d="M889,110.77h51.5a7.5,7.5,0,0,1,7.5,7.5v0a7.5,7.5,0,0,1-7.5,7.5H889a0,0,0,0,1,0,0v-15a0,0,0,0,1,0,0Z"/><path class="cls-26" d="M889,120.31h59a0,0,0,0,1,0,0v0a5.45,5.45,0,0,1-5.45,5.45H889a0,0,0,0,1,0,0v-5.45A0,0,0,0,1,889,120.31Z"/><path class="cls-27" d="M889,110.77h53.55a5.45,5.45,0,0,1,5.45,5.45v0a0,0,0,0,1,0,0H889a0,0,0,0,1,0,0v-5.45A0,0,0,0,1,889,110.77Z"/><path class="cls-5" d="M940.5,127.27h-53v-18h53a9,9,0,0,1,0,18Zm-50-3h50a6,6,0,0,0,0-12h-50Z"/><rect class="cls-28" x="879.15" y="108.48" width="9.53" height="19.56"/><rect class="cls-29" x="879.15" y="122.83" width="9.53" height="5.22"/><rect class="cls-9" x="879.15" y="108.48" width="9.53" height="7.11"/><path class="cls-5" d="M890.18,129.55H877.65V107h12.53Zm-9.53-3h6.53V110h-6.53Z"/><rect class="cls-9" x="708" y="399" width="68" height="104" rx="34" ry="34"/><path class="cls-30" d="M746,502.28a29.31,29.31,0,0,1-3,.48c-.33,0-.67.08-1,.1A34,34,0,0,1,711,469V433a34,34,0,0,1,31-33.86c.33,0,.67,0,1,.1a29.31,29.31,0,0,1,3,.48A34,34,0,0,0,719,433v36A34,34,0,0,0,746,502.28Z"/><path class="cls-30" d="M738,399.72a29.31,29.31,0,0,1,3-.48c.33,0,.67-.08,1-.1A34,34,0,0,1,773,433v36a34,34,0,0,1-31,33.86c-.33,0-.67,0-1-.1a29.31,29.31,0,0,1-3-.48A34,34,0,0,0,765,469V433A34,34,0,0,0,738,399.72Z"/><path class="cls-5" d="M742,506a37,37,0,0,1-37-37V433a37,37,0,0,1,74,0v36A37,37,0,0,1,742,506Zm0-104a31,31,0,0,0-31,31v36a31,31,0,0,0,62,0V433A31,31,0,0,0,742,402Z"/><path class="cls-5" d="M951.35,438.15l-19.07-14.58L961,386.06A12,12,0,1,1,980,400.64Zm-10.66-15.7,9.53,7.29,25-32.74a6,6,0,0,0-9.53-7.29Z"/><path class="cls-31" d="M970.29,436h34.94c2.63,0,4.76,2.69,4.76,6v2c0,3.31-2.13,6-4.76,6H992.65a2.5,2.5,0,0,0-2.5,2.5h0a2.5,2.5,0,0,0,2.5,2.5h26.88c2.63,0,4.76,2.69,4.76,6h0c0,3.31-2.13,6-4.76,6H971.88Z"/><path class="cls-10" d="M970,479a44,44,0,0,0-36.39-43.33l-.29-.41a43.94,43.94,0,0,0-4.74-.26c-.43,0-.86,0-1.29,0s-.86,0-1.29,0a44,44,0,0,0,0,88c.43,0,.86,0,1.29,0s.86,0,1.29,0a43.94,43.94,0,0,0,8.62-.84c.08-.22.14-.44.21-.66A44,44,0,0,0,970,479Z"/><circle class="cls-31" cx="933" cy="451" r="34"/><path class="cls-32" d="M941.44,472.22a16.21,16.21,0,0,1,.22,12.13,34,34,0,1,1-3-67.15,28.18,28.18,0,0,1,1.67,2.52c2.71,4.66,3.73,10.85.71,15.31-3.18,4.69-9.94,6.35-12.27,11.52-2.06,4.57.29,10,3.44,13.86S939.39,467.64,941.44,472.22Z"/><path class="cls-33" d="M933,402a49,49,0,1,0,49,49A49,49,0,0,0,933,402Zm0,83a34,34,0,1,1,34-34A34,34,0,0,1,933,485Z"/><path class="cls-34" d="M954.95,408.18Q952.49,408,950,408a66,66,0,0,0-64.94,54.18,49,49,0,0,1,69.89-54Z"/><path class="cls-9" d="M910,496q2.46.18,4.95.18A66,66,0,0,0,979.89,442,49,49,0,0,1,910,496Z"/><path class="cls-5" d="M933,488a37,37,0,1,1,37-37A37,37,0,0,1,933,488Zm0-68a31,31,0,1,0,31,31A31,31,0,0,0,933,420Z"/><path class="cls-5" d="M933,503a52,52,0,1,1,52-52A52.06,52.06,0,0,1,933,503Zm0-98a46,46,0,1,0,46,46A46.05,46.05,0,0,0,933,405Z"/><rect class="cls-35" x="124.67" y="318" width="94" height="183" rx="18.95" ry="18.95"/><path class="cls-9" d="M197.92,318l-55.5,182.53a18.94,18.94,0,0,1-14.69-17L178.06,318Z"/><path class="cls-9" d="M212.95,321,158.22,501H151l55.53-182.62A18.84,18.84,0,0,1,212.95,321Z"/><path class="cls-5" d="M199.72,504h-56.1a22,22,0,0,1-22-22V337a22,22,0,0,1,22-22h56.1a22,22,0,0,1,22,22V482A22,22,0,0,1,199.72,504Zm-56.1-183a16,16,0,0,0-16,16V482a16,16,0,0,0,16,16h56.1a16,16,0,0,0,16-16V337a16,16,0,0,0-16-16Z"/><path class="cls-36" d="M171.67,318.23l-27-.23,2.85,8.54a5.07,5.07,0,0,0,4.81,3.46H191a5.07,5.07,0,0,0,4.81-3.46l2.85-8.54Z"/><polygon class="cls-37" points="171.67 322.23 197.66 322.01 198.67 319 171.67 319.23 144.67 319 145.67 322.01 171.67 322.23"/><path class="cls-5" d="M191,332h-38.7a7.06,7.06,0,0,1-6.7-4.83L141.88,316l29.78.25,29.78-.25-3.73,11.19A7.06,7.06,0,0,1,191,332Zm-43.57-12,2,5.88a3.06,3.06,0,0,0,2.91,2.1H191a3.06,3.06,0,0,0,2.91-2.1l2-5.88-24.23.21Z"/><path class="cls-5" d="M155.67,486.5h32a1.5,1.5,0,0,0,0-3h-32a1.5,1.5,0,0,0,0,3Z"/><rect class="cls-5" x="316.5" y="1.5" width="6" height="91"/></g></g></svg>